<svg width="24" height="24" viewBox="0 0 24 24" fill="none" xmlns="http://www.w3.org/2000/svg">
<rect width="24" height="24" rx="8" fill="#4B9F47"/>
<path d="M16.7018 7.22461C17.0946 6.90393 17.6744 6.92673 18.0407 7.29297C18.4066 7.65905 18.4292 8.23815 18.109 8.63086L18.0407 8.70703L10.7067 16.04C10.5191 16.2276 10.2649 16.333 9.99964 16.333C9.76751 16.3329 9.54379 16.2524 9.36585 16.1064L9.29261 16.04L5.9596 12.707L5.89125 12.6309C5.57089 12.2381 5.59349 11.6591 5.9596 11.293C6.32572 10.9269 6.90472 10.9043 7.2975 11.2246L7.37367 11.293L9.99964 13.9189L16.6266 7.29297L16.7018 7.22461Z" fill="white"/>
</svg>
